<svg width="966" height="966" viewBox="0 0 966 966" fill="none" xmlns="http://www.w3.org/2000/svg">
<path fill-rule="evenodd" clip-rule="evenodd" d="M316.667 366.667C316.667 274.619 391.286 200 483.333 200C575.38 200 650 274.619 650 366.667V439.023C688.84 452.75 716.667 489.793 716.667 533.333V666.667C716.667 721.897 671.897 766.667 616.667 766.667H350C294.772 766.667 250 721.897 250 666.667V533.333C250 489.793 277.827 452.75 316.667 439.023V366.667ZM383.333 433.333H583.333V366.667C583.333 311.438 538.563 266.667 483.333 266.667C428.103 266.667 383.333 311.438 383.333 366.667V433.333ZM350 500C331.591 500 316.667 514.923 316.667 533.333V666.667C316.667 685.077 331.591 700 350 700H616.667C635.077 700 650 685.077 650 666.667V533.333C650 514.923 635.077 500 616.667 500H350Z" fill="black"/>
<path d="M483 932.167C731.068 932.167 932.167 731.068 932.167 483C932.167 234.932 731.068 33.8334 483 33.8334C234.932 33.8334 33.8334 234.932 33.8334 483C33.8334 731.068 234.932 932.167 483 932.167Z" stroke="black" stroke-width="66.6667" stroke-linecap="round" stroke-linejoin="round"/>
</svg>
