<svg width="966" height="966" viewBox="0 0 966 966" fill="none" xmlns="http://www.w3.org/2000/svg">
<path d="M750.333 783V716.333C750.333 680.971 736.286 647.057 711.281 622.052C686.276 597.048 652.362 583 617 583H350.333C314.971 583 281.057 597.048 256.052 622.052C231.048 647.057 217 680.971 217 716.333V783" stroke="black" stroke-width="66.6667" stroke-linecap="round" stroke-linejoin="round"/>
<path d="M483.667 449.667C557.305 449.667 617 389.971 617 316.333C617 242.695 557.305 183 483.667 183C410.029 183 350.333 242.695 350.333 316.333C350.333 389.971 410.029 449.667 483.667 449.667Z" stroke="black" stroke-width="66.6667" stroke-linecap="round" stroke-linejoin="round"/>
<path d="M483.167 932.333C731.235 932.333 932.333 731.235 932.333 483.167C932.333 235.099 731.235 34 483.167 34C235.099 34 34 235.099 34 483.167C34 731.235 235.099 932.333 483.167 932.333Z" stroke="black" stroke-width="66.6667" stroke-linecap="round" stroke-linejoin="round"/>
</svg>
